<svg width="120" height="52" fill="none" xmlns="http://www.w3.org/2000/svg"><path d="M51.244 41.467h-3.653c-.129 0-.221-.145-.221-.283 0-.05 1.944-6.317 1.944-6.317.07-.234.076-.241.102-.241h.004c.029 0 .032.007.102.241 0 0 1.943 6.267 1.943 6.317 0 .138-.099.283-.22.283zm4.928-14.339a.318.318 0 00-.281-.228H42.476a.32.32 0 00-.28.225s-7.416 24.48-7.416 24.527c0 .122.095.221.22.221h8.868a.233.233 0 00.139-.168l1.033-3.3a.223.223 0 01.201-.143l8.182-.006c.088.007.168.07.2.149l1.057 3.3c.016.076.07.145.139.171l8.725-.003a.219.219 0 00.225-.215c0-.043-7.597-24.53-7.597-24.53zm25.28 9.995l-5.45.004s-.144-.043-.144-.208l-.004-2.75c0-.164.145-.207.145-.207h4.997c.58 0 1.755.29 1.755 1.633s-1.3 1.528-1.3 1.528zm26.124-2.128h12.346v-8.096h-15.874c-1.485 0-3.574.766-4.772 1.654-1.198.887-2.93 2.91-2.93 5.7 0 2.788 1.692 4.956 1.692 4.956.868 1.076 3.053 3.317 3.053 3.317a.303.303 0 01-.225.505H88.639c-1.488-.007-1.59-.597-1.59-.683 0-.152.184-.248.184-.248.558-.267 1.696-1.155 1.696-1.155 2.416-1.881 2.707-4.462 2.707-5.845 0-1.386-.208-3.838-2.687-5.986-2.478-2.149-5.617-2.208-5.617-2.208H65.885V51.73c0 .08.073.142.152.142h9.713v-6.963c0-.122.187 0 .187 0l5.06 5.082c1.798 1.818 4.772 1.881 4.772 1.881l19.128-.003c3.264 0 5.079-1.776 5.577-2.27.495-.5 2.149-2.357 2.149-5.436 0-3.076-1.406-4.65-2.007-5.373-.534-.647-2.666-2.904-3.112-3.373a.233.233 0 01-.086-.181c0-.11.063-.211.159-.241zM30.346 51.87c.067 0 .113-.046.133-.118 0 0 7.514-24.683 7.514-24.706 0-.066-.04-.138-.102-.145h-9.264c-.046 0-.076.036-.085.086l-1.918 6.422c-.013.053-.04.086-.086.086-.046 0-.086-.047-.092-.086l-2.007-6.425c-.006-.044-.04-.083-.085-.083L14.123 26.9a.099.099 0 00-.066.06l-1.799 6.448c-.01.056-.04.089-.089.089a.088.088 0 01-.086-.076l-1.907-6.442a.09.09 0 00-.076-.08H.226a.147.147 0 00-.146.149c0 .013.004.04.004.04L7.71 51.753c.02.072.066.118.132.118l8.2.004c.05-.007.1-.063.113-.122.003 0 2.854-9.178 2.854-9.178.017-.056.04-.09.086-.09.05 0 .076.04.09.086l2.781 9.221a.118.118 0 00.113.08h8.267zM23.213.08c-1.488 0-3.573.766-4.771 1.654-1.199.887-2.931 2.91-2.931 5.699 0 2.789 1.693 4.957 1.693 4.957.868 1.076 3.053 3.333 3.053 3.333.05.053.079.122.079.198a.306.306 0 01-.304.307H.078v8.825h23.983c3.26 0 5.079-1.776 5.577-2.274.495-.495 2.145-2.353 2.145-5.432 0-3.076-1.402-4.667-2.003-5.39-.535-.646-2.666-2.89-3.112-3.356a.245.245 0 01-.086-.185c0-.109.063-.208.159-.24h11.55v16.877h8.881V8.217h10.782V.08H23.212zm77.459 10.224l-5.449.004s-.145-.043-.145-.208l-.003-2.75c0-.164.145-.207.145-.207h4.997c.58 0 1.755.29 1.755 1.633 0 1.344-1.3 1.528-1.3 1.528zm7.188 5.908c-1.485-.007-1.591-.597-1.591-.683 0-.152.185-.248.185-.248.558-.267 1.696-1.155 1.696-1.155 2.416-1.881 2.707-4.462 2.707-5.844 0-1.387-.209-3.839-2.687-5.987C105.692.146 102.553.08 102.553.08H85.104v24.83c0 .08.073.142.152.142h9.712v-6.96c0-.126.188 0 .188 0l5.06 5.079c1.798 1.818 4.772 1.88 4.772 1.88h14.933v-8.84h-12.062zm-36.921-1.566h-3.654c-.135 0-.22-.145-.22-.284 0-.052 1.943-6.316 1.943-6.316.07-.234.089-.241.102-.241h.003c.014 0 .033.007.103.24 0 0 1.943 6.265 1.943 6.317 0 .139-.088.284-.22.284zM75.855.3a.304.304 0 00-.28-.22H62.158a.309.309 0 00-.28.217s-7.41 24.488-7.41 24.534c0 .122.1.22.221.22h8.868a.223.223 0 00.142-.168l1.033-3.303a.224.224 0 01.201-.139h8.178a.244.244 0 01.205.142l1.056 3.3c.016.077.07.146.138.172l8.726-.003a.216.216 0 00.221-.218c0-.04-7.603-24.534-7.603-24.534z" fill="#222"/></svg>